<?xml version="1.0" standalone="no"?>
<!DOCTYPE svg PUBLIC "-//W3C//DTD SVG 20010904//EN"
 "http://www.w3.org/TR/2001/REC-SVG-20010904/DTD/svg10.dtd">
<svg version="1.0" xmlns="http://www.w3.org/2000/svg"
 width="500.000000pt" height="500.000000pt" viewBox="0 0 500.000000 500.000000"
 preserveAspectRatio="xMidYMid meet">

<g transform="translate(0.000000,500.000000) scale(0.100000,-0.100000)"
fill="#000000" stroke="none">
<path d="M2451 3105 c-78 -67 -143 -253 -182 -523 -11 -82 -12 -84 -52 -109
-62 -39 -142 -63 -253 -75 -86 -10 -129 -9 -275 7 -358 37 -567 7 -653 -95
-38 -46 -35 -124 4 -100 12 7 12 12 2 22 -52 52 48 129 212 163 98 20 147 19
367 -6 278 -31 476 -11 591 60 l47 29 -7 -51 c-3 -29 -7 -99 -7 -157 0 -98 1
-105 20 -105 13 0 26 12 37 35 9 19 46 97 82 172 66 138 138 236 168 226 21
-7 21 -67 -1 -175 -27 -131 -27 -187 -1 -213 11 -11 25 -20 30 -20 39 0 130
85 223 208 27 34 49 62 50 62 1 0 3 -53 3 -118 1 -132 16 -190 53 -209 56 -27
128 33 243 202 34 50 64 93 68 98 3 4 6 -28 6 -70 0 -129 38 -184 117 -169 42
8 136 91 233 208 91 109 101 122 88 117 -6 -2 -45 -45 -88 -96 -147 -176 -245
-248 -284 -210 -36 36 -3 249 58 373 35 71 57 85 82 54 22 -27 23 -49 2 -78
-18 -26 -12 -29 10 -6 21 21 20 77 -1 96 -59 50 -126 11 -179 -107 -30 -67
-154 -253 -220 -331 -50 -59 -95 -81 -118 -58 -25 24 -30 83 -17 198 19 176
25 194 91 274 114 140 199 305 200 387 0 39 -20 77 -48 91 -72 36 -156 -56
-218 -239 -26 -78 -59 -224 -70 -312 -6 -52 -14 -70 -63 -135 -72 -97 -182
-210 -204 -210 -22 0 -23 66 -2 160 22 99 20 195 -5 220 -11 11 -29 20 -40 20
-49 0 -127 -104 -202 -269 l-39 -86 6 70 c3 39 11 109 17 157 10 84 13 91 60
149 129 161 190 280 196 379 3 55 1 69 -18 93 -28 36 -77 37 -119 2z m96 0
c70 -49 11 -230 -140 -427 -28 -37 -53 -66 -55 -63 -6 6 17 139 45 254 35 148
84 251 117 251 6 0 21 -7 33 -15z m617 -27 c46 -66 -19 -236 -161 -420 -41
-54 -48 -60 -51 -41 -4 30 23 168 55 273 53 177 114 250 157 188z"/>
</g>
</svg>
